Patient4_TMGait_0pt6_01_right_10_EMG.mot
version=1
nRows=27
nColumns=33
inDegrees=no
endheader
time	1LAddLong	2LGlutMax	3LGlutMed	4LIliopsoas	5LSemiMemb	6LBicFemLong	7LRecFem	8LVastMed	9LVastLat	10LGasMed	11LTibAnt	12lTibPost	13LPeroneusLong	14LSol	15LExtDigLong	16LFlexDigLong	17RAddLong	18RGlutMax	19RGlutMed	20RIliopsoas	21RSemiMemb	22RBicFemLong	23RRecFem	24RVastMed	25RVastLat	26RGasMed	27RTibAnt	28RTibPost	29RPeroneusLong	30RSol	31RExtDigLong	32RFlexDigLong
11.985	-0.005035	-0.28839	-0.061646	0.010529	0.013733	0.015106	0.15121	0.005341	0.041046	-0.77881	-0.00473	0.038605	-0.17532	0.17044	0.008698	0.1915	0.010834	-0.63934	-0.39047	-0.16098	-0.2095	0.31677	0.028687	-0.15427	-0.66315	-0.031891	0.059814	-0.021515	0.87921	-0.1413	-0.003357	-0.013733
11.986	-0.014801	-0.31021	-0.052185	0.002899	0.021515	0.023346	0.16083	0.004425	0.04364	-0.14618	0.00885	-0.025635	-0.18478	0.084076	-0.024414	-0.063019	-0.020447	-0.7251	0.73059	0.039978	-0.048828	0.058136	0.20126	0.054016	-0.52139	-0.056152	0.059204	-0.012207	2.7148	0.050049	-0.002441	-0.019379
11.987	-0.004578	-0.31357	-0.055542	0.02121	0.01709	0.01709	0.20935	0.050964	0.049591	0.10529	0.022736	-0.046844	-0.13321	-0.067291	-0.054169	0.17838	0.009308	-0.74829	0.085754	0.14358	-0.13092	-0.16205	0.1593	0.22446	-0.40802	-0.056915	0.056152	-0.014343	1.9048	0.076141	-0.005951	-0.009766
11.988	0.010376	-0.30853	-0.06485	0.014496	0.006409	0.009155	0.21515	0.000458	0.040131	-0.07843	0.003662	0.017242	-0.40131	-0.25879	-0.075226	-0.18585	0.036163	-0.7547	-0.080414	0.19379	-0.18585	-0.11459	-0.008545	0.11612	-0.38849	-0.033264	-0.080109	-0.016785	-0.54565	0.019531	-0.003357	-0.002441
11.989	-0.002899	-0.26398	-0.056152	-0.013275	0.016174	0.023346	0.21576	0.005341	0.049896	-0.34912	-0.011597	-0.03067	0.027771	-0.5101	-0.1062	0.38513	0.028381	-0.69855	0.383	0.15442	-0.21957	0.028076	-0.15762	0.089264	-0.20187	-0.00824	0.099487	-0.017395	-1.4636	0.19012	-0.002899	0.000305
11.99	-0.004578	-0.27679	-0.075378	-0.008698	0.010071	0.037537	0.15778	-0.003204	0.063171	-0.27329	-0.018616	0.037231	0.084534	-0.016327	-0.082855	0.3183	-0.008545	-0.64743	0.085297	0.033112	-0.19898	-0.04303	-0.14343	0.19333	0.16815	0.035095	0.26779	-0.006866	0.3714	0.31036	-0.002747	-0.010071
11.991	-0.001526	-0.28244	-0.078583	-0.006104	0.006104	0.013733	0.13153	-0.003357	0.11704	-0.16068	0.008087	0.11383	0.13992	0.26901	-0.044403	0.084686	-0.031738	-0.63248	-0.068054	-0.032196	0.06546	-0.11566	0.026398	0.13504	0.28946	0.03479	0.1944	-0.017853	0.75058	0.28137	-0.00061	-0.006714
11.992	-0.002441	-0.25299	-0.10529	0.021667	0.015869	0.026703	0.06546	-0.004883	0.13092	-0.25894	0.014801	0.095367	0.078125	0.072174	0.007019	0.084839	0.02121	-0.66483	-0.15091	-0.011444	0.039673	-0.15137	0.091553	0.10483	0.16068	0.048065	-0.22568	-0.014191	-1.2997	-0.13733	-0.00885	0.005646
11.993	-0.001831	-0.25192	-0.12421	0.037689	0.011902	0.030823	0.093994	-0.003967	0.12192	-0.4364	0.000153	0.27679	-0.0354	0.34988	0.02243	0.059967	0.019226	-0.63675	-0.32806	-0.011749	-0.046387	-0.030212	0.086212	0.19318	0.094604	0.054474	-0.11734	-0.019836	-2.5275	-0.24872	-0.001984	-0.000153
11.994	-0.003662	-0.22873	-0.11398	0.031738	0.016327	0.027161	0.12894	-0.007324	0.13382	-0.41946	-0.001526	-0.11185	0.16693	0.39734	0.028229	-0.092316	-0.014954	-0.58579	-0.045471	-0.058289	0.31555	0.21988	0.14984	0.15503	0.17624	0.037994	0.066986	-0.027618	-2.9585	-0.1091	-0.005798	-0.005188
11.995	-0.001221	-0.19791	-0.12497	0.00473	0.012512	0.008392	0.15747	-0.001373	0.14557	-0.35523	-0.00412	-0.11917	-0.018921	0.22064	0.042572	-0.38834	-0.093994	-0.56473	0.3717	-0.053253	0.61386	0.29144	0.22949	0.15991	0.087585	-0.011292	0.11551	-0.016479	-0.50095	-0.038605	-0.003357	-0.001678
11.996	-0.003204	-0.22201	-0.15869	-0.000153	0.012054	0.030365	0.20828	0.003967	0.1474	-0.26062	-0.005646	-0.042877	-0.094299	0.064545	0.047913	-0.059204	-0.11429	-0.55908	0.61417	-0.015869	0.40329	0.06073	0.33417	0.17792	-0.062103	-0.011902	0.001068	-0.010376	-0.095825	0.13367	-0.004578	-0.009766
11.997	-0.003357	-0.22156	-0.16525	0.006256	0.015259	0.035248	0.32486	0.000458	0.1506	-0.23712	-0.007324	-0.005035	-0.07843	0.003357	0.049286	0.11871	-0.09491	-0.67032	-0.078888	0.12756	0.08667	-0.37674	0.3978	0.2301	-0.12741	0.023193	-0.001526	-0.014038	0.14877	0.19608	-0.002441	-0.005798
11.998	-0.010223	-0.22217	-0.16571	-0.001221	0.006866	0.027771	0.37994	-0.002289	0.14557	-0.11276	0.001831	-0.011444	-0.32166	-0.40497	-0.00946	0.072174	-0.076904	-0.76492	-0.057068	0.23499	-0.057678	-0.64453	0.40115	0.29098	-0.066833	0.029602	-0.11459	-0.010376	1.4491	0.14725	-0.001526	-0.011902
11.999	-0.002441	-0.16205	-0.15366	-0.002441	0.009918	0.01709	0.40787	-0.003357	0.13702	0.054474	0.007477	-0.013123	-0.12756	-0.39658	-0.016479	0.055237	-0.061188	-0.68909	0.11231	0.14099	-0.044861	-0.72022	0.29694	0.34378	0.035095	0.005798	-0.43228	-0.006561	2.8227	-0.076904	-0.003052	-0.011139
12	-0.010223	-0.18601	-0.15488	0.012817	0.012054	0.032654	0.44128	-0.002899	0.12405	0.14862	-0.010986	0.017548	-0.16113	-0.090179	-0.074921	-0.023956	-0.076904	-0.65124	-0.13229	0.019531	0.098114	-0.69382	0.29602	0.41199	-0.18051	-0.032959	-0.233	0.001526	1.2897	0.17532	-0.002441	-0.014496
12.001	-0.009766	-0.17654	-0.13107	0.016785	0.013275	0.022278	0.42435	-0.003357	0.11826	0.096741	-0.0177	-0.022736	-0.36102	-0.15884	-0.063782	-0.068207	-0.052185	-0.71365	-0.57602	-0.00885	0.092926	-0.46631	0.22354	0.34225	-0.57831	-0.019531	0.042267	0.004425	0.31128	0.33142	-0.003662	-0.010529
12.002	-0.002441	-0.15671	-0.13794	0.012817	0.013733	0.020447	0.3624	-0.00412	0.11795	0.1178	0.005798	-0.028076	-0.082703	-0.44647	-0.016174	-0.075226	-0.019379	-0.74112	-0.20737	-0.10742	0.024567	-0.18997	0.23697	0.056152	-0.63599	-0.016479	0.30212	-0.016174	-0.34332	0.2626	-0.000763	-0.001984
12.003	-0.00824	-0.12146	-0.13489	0.016022	0.00473	0.019836	0.3865	0.002899	0.14145	0.19821	-0.001831	-0.005646	-0.12039	-0.1506	-0.05249	0.029144	-0.00885	-0.76645	0.67093	-0.20386	-0.053101	-0.11017	0.3006	-0.044098	-0.47821	-0.018463	0.46051	-0.020294	0.36316	-0.096283	-0.00351	-0.002289
12.004	-0.005188	-0.11795	-0.12543	-0.002136	0.021057	0.019684	0.49866	-0.008545	0.15793	0.13046	0.00351	0.017242	-0.14557	0.093231	-0.012512	0.12909	0.007629	-0.88745	1.2251	-0.15457	-0.065613	0.11841	0.39246	-0.38544	-0.28366	-0.012817	0.44266	-0.014954	0.096741	-0.39948	-0.003662	0.004272
12.005	-0.017242	-0.15335	-0.12878	0.009918	0.010834	0.019073	0.62759	-0.001831	0.17166	0.10101	-0.005798	0.013123	-0.060883	0.072784	0.041046	0.022736	0.014954	-0.95917	0.19165	-0.035858	-0.05188	0.62225	0.49027	-0.50461	-0.1651	-0.000458	0.31616	0.02655	0.075836	-0.457	-0.003662	0.001984
12.006	-0.011292	-0.21591	-0.1387	-0.002899	0.005035	0.016937	0.58411	-0.002136	0.15915	-0.00061	-0.007782	0.016937	-0.034027	0.038757	0.018463	0.004578	0.031891	-0.99442	-0.64041	0.13382	-0.007019	0.4274	0.75974	-0.35156	-0.21484	0.023346	-0.25177	0.047913	0.13473	-0.65414	-0.000305	0.010681
12.007	-0.019226	-0.22553	-0.12589	0.023956	0.014191	0.003815	0.41794	0.001526	0.16327	-0.024719	0.00351	0.007324	-0.1178	0.077667	-0.025787	0.009766	-0.005798	-0.90653	-0.86456	0.25497	0.06073	0.1239	0.77179	-0.32013	-0.24048	0.039063	-0.44739	0.010681	1.0039	-0.50064	-0.007324	0.011444
12.008	-0.012207	-0.16342	-0.1178	0.00824	0.00824	-0.000305	0.45151	0.002899	0.18799	-0.11887	-0.003967	0.000153	-0.030365	0.009613	-0.060577	0.008392	-0.030518	-0.90683	-0.97794	0.10315	0.049133	0.19089	0.81345	-0.38986	-0.25833	0.030212	-0.63522	-0.011749	1.5691	-0.15518	-0.000153	0.010986
12.009	-0.015106	-0.16129	-0.10635	0.001221	0.006866	0.000916	0.49164	0.004272	0.18936	0.045319	-0.020752	0.001526	0.10071	-0.000916	-0.034027	0.018768	-0.027161	-0.92316	-0.72296	0.086212	-0.066681	0.60135	0.64682	-0.34683	-0.074158	0.035553	-0.86273	-0.000153	-1.7621	-0.56946	-0.005188	0.01358
12.01	-0.011444	-0.15625	-0.097809	0.007935	0.009766	0.007019	0.44479	0.015106	0.18753	0.099335	-0.059204	0.009308	0.078583	0.007324	-0.024261	0.030823	-0.053101	-1.0094	-0.60226	-0.035858	0.056458	0.64575	0.23651	0.30151	0.040131	0.037842	-0.38895	-0.000763	-2.3473	-0.47852	-0.010223	0.006409
12.011	-0.014954	-0.11322	-0.11093	0.006714	0.005951	0.002441	0.36224	0.014648	0.18036	-0.12054	-0.042877	0.001678	0.17075	-0.042725	-0.0177	0.0177	-0.062866	-1.0323	-0.089874	-0.31265	0.017548	0.28015	-0.26627	0.40009	0.14481	0.000305	-0.093689	-0.004578	-0.57602	-0.19257	-0.001526	-0.002136
